# xmcd
#
# Track frame offsets:
#	183
#	13153
#	23803
#	35398
#	48003
#	58065
#	69130
#	80463
#	88870
#	101750
#
# Disc length: 1518
#
# Revision: 3
# Processed by: cddbd v1.5.1PL0 Copyright (c) Steve Scherf et al.
# Submitted via: ExactAudioCopy v0.90b4
# Normalized: r2:DSETVAR1
#
DISCID=7505ec0a
DTITLE=Various Artist - Country Music Classics Volume XVI (1955-1960)
DYEAR=1993
DGENRE=Country
TTITLE0=Johnny Horton - North To Alaska
TTITLE1=Jim Reeves - He'll Have To Go
TTITLE2=Ray Price - Crazy Arms
TTITLE3=George Jones - White Lightning
TTITLE4=Jimmy Newman - A Fallen Star
TTITLE5=Marty Robbins - Singing The Blues
TTITLE6=Leroy Van Dyke - Auctioneer
TTITLE7=Johnny Cash - Guess Things Happen That Way
TTITLE8=Webb Pierce - Love, Love, Love
TTITLE9=Eddy Arnold - The Cattle Call
EXTD=
EXTT0=
EXTT1=
EXTT2=
EXTT3=
EXTT4=
EXTT5=
EXTT6=
EXTT7=
EXTT8=
EXTT9=
PLAYORDER=
